{
  "accessors": [
    {
      "bufferView": 2,
      "componentType": 5126,
      "count": 17762,
      "max": [
        258.0281677246094,
        48.136112213134766,
        276.30902099609375
      ],
      "min": [
        -269.55059814453125,
        -48.1363525390625,
        -279.7876892089844
      ],
      "type": "VEC3"
    },
    {
      "bufferView": 2,
      "byteOffset": 213144,
      "componentType": 5126,
      "count": 17762,
      "max": [
        1.0,
        1.0,
        1.0
      ],
      "min": [
        -1.0,
        -1.0,
        -1.0
      ],
      "type": "VEC3"
    },
    {
      "bufferView": 3,
      "componentType": 5126,
      "count": 17762,
      "max": [
        1.0,
        1.0,
        1.0,
        1.0
      ],
      "min": [
        -1.0,
        -1.0,
        -1.0,
        -1.0
      ],
      "type": "VEC4"
    },
    {
      "bufferView": 1,
      "componentType": 5126,
      "count": 17762,
      "max": [
        0.9925479292869568,
        0.9916266798973083
      ],
      "min": [
        0.007952332496643066,
        0.006740681827068329
      ],
      "type": "VEC2"
    },
    {
      "bufferView": 0,
      "componentType": 5125,
      "count": 63714,
      "type": "SCALAR"
    },
    {
      "bufferView": 2,
      "byteOffset": 426288,
      "componentType": 5126,
      "count": 64,
      "max": [
        102.5811996459961,
        -21.361536026000977,
        -19.064937591552734
      ],
      "min": [
        22.186323165893555,
        -33.84206008911133,
        -83.22065734863281
      ],
      "type": "VEC3"
    },
    {
      "bufferView": 2,
      "byteOffset": 427056,
      "componentType": 5126,
      "count": 64,
      "max": [
        0.7979035973548889,
        1.0,
        1.0
      ],
      "min": [
        -0.9986989498138428,
        -1.0,
        -0.9998864531517029
      ],
      "type": "VEC3"
    },
    {
      "bufferView": 3,
      "byteOffset": 284192,
      "componentType": 5126,
      "count": 64,
      "max": [
        0.9659261107444763,
        0.6781508922576904,
        0.7080822587013245,
        1.0
      ],
      "min": [
        -0.8191578388214111,
        -0.7516244053840637,
        -0.5735790133476257,
        -1.0
      ],
      "type": "VEC4"
    },
    {
      "bufferView": 1,
      "byteOffset": 142096,
      "componentType": 5126,
      "count": 64,
      "max": [
        0.41141948103904724,
        0.5105006694793701
      ],
      "min": [
        0.20539487898349762,
        0.34680917859077454
      ],
      "type": "VEC2"
    },
    {
      "bufferView": 0,
      "byteOffset": 254856,
      "componentType": 5125,
      "count": 120,
      "type": "SCALAR"
    }
  ],
  "asset": {
    "extras": {
      "author": "Hana Soojin E Stoffels (https://sketchfab.com/hanastoffels)",
      "license": "CC-BY-4.0 (http://creativecommons.org/licenses/by/4.0/)",
      "source": "https://sketchfab.com/3d-models/dva-gun-7363a5ebc8034143864efd3fecfc6e5d",
      "title": "D.VA gun"
    },
    "generator": "Sketchfab-12.68.0",
    "version": "2.0"
  },
  "bufferViews": [
    {
      "buffer": 0,
      "byteLength": 255336,
      "name": "floatBufferViews",
      "target": 34963
    },
    {
      "buffer": 0,
      "byteLength": 142608,
      "byteOffset": 255336,
      "byteStride": 8,
      "name": "floatBufferViews",
      "target": 34962
    },
    {
      "buffer": 0,
      "byteLength": 427824,
      "byteOffset": 397944,
      "byteStride": 12,
      "name": "floatBufferViews",
      "target": 34962
    },
    {
      "buffer": 0,
      "byteLength": 285216,
      "byteOffset": 825768,
      "byteStride": 16,
      "name": "floatBufferViews",
      "target": 34962
    }
  ],
  "buffers": [
    {
      "byteLength": 1110984,
      "uri": "scene.bin"
    }
  ],
  "images": [
    {
      "uri": "textures/Scene_-_Root_baseColor.png"
    },
    {
      "uri": "textures/Scene_-_Root_metallicRoughness.png"
    },
    {
      "uri": "textures/Scene_-_Root_normal.png"
    }
  ],
  "materials": [
    {
      "doubleSided": true,
      "name": "Scene_-_Root",
      "normalTexture": {
        "index": 2
      },
      "occlusionTexture": {
        "index": 1
      },
      "pbrMetallicRoughness": {
        "baseColorTexture": {
          "index": 0
        },
        "metallicRoughnessTexture": {
          "index": 1
        }
      }
    }
  ],
  "meshes": [
    {
      "name": "gun_Lowpoly__0",
      "primitives": [
        {
          "attributes": {
            "NORMAL": 1,
            "POSITION": 0,
            "TANGENT": 2,
            "TEXCOORD_0": 3
          },
          "indices": 4,
          "material": 0,
          "mode": 4
        }
      ]
    },
    {
      "name": "trigger_Lowpoly__0",
      "primitives": [
        {
          "attributes": {
            "NORMAL": 6,
            "POSITION": 5,
            "TANGENT": 7,
            "TEXCOORD_0": 8
          },
          "indices": 9,
          "material": 0,
          "mode": 4
        }
      ]
    }
  ],
  "nodes": [
    {
      "children": [
        1
      ],
      "matrix": [
        1.0,
        0.0,
        0.0,
        0.0,
        0.0,
        2.220446049250313e-16,
        -1.0,
        0.0,
        0.0,
        1.0,
        2.220446049250313e-16,
        0.0,
        0.0,
        0.0,
        0.0,
        1.0
      ],
      "name": "Sketchfab_model"
    },
    {
      "children": [
        2
      ],
      "matrix": [
        1.0,
        0.0,
        0.0,
        0.0,
        0.0,
        0.0,
        1.0,
        0.0,
        0.0,
        -1.0,
        0.0,
        0.0,
        0.0,
        0.0,
        0.0,
        1.0
      ],
      "name": "dcc793f8058e4d08a816c2498a2b860f.fbx"
    },
    {
      "children": [
        3,
        5
      ],
      "name": "RootNode"
    },
    {
      "children": [
        4
      ],
      "matrix": [
        1.0,
        0.0,
        0.0,
        0.0,
        0.0,
        2.220446049250313e-16,
        -1.0,
        0.0,
        0.0,
        1.0,
        2.220446049250313e-16,
        0.0,
        185.41409301757813,
        336.7747802734375,
        18.30663299560547,
        1.0
      ],
      "name": "gun_Lowpoly"
    },
    {
      "mesh": 0,
      "name": "gun_Lowpoly__0"
    },
    {
      "children": [
        6
      ],
      "matrix": [
        1.0,
        0.0,
        0.0,
        0.0,
        0.0,
        2.220446049250313e-16,
        -1.0,
        0.0,
        0.0,
        1.0,
        2.220446049250313e-16,
        0.0,
        166.50022888183594,
        484.27899169921875,
        -9.261831283569336,
        1.0
      ],
      "name": "trigger_Lowpoly"
    },
    {
      "mesh": 1,
      "name": "trigger_Lowpoly__0"
    }
  ],
  "samplers": [
    {
      "magFilter": 9729,
      "minFilter": 9987,
      "wrapS": 10497,
      "wrapT": 10497
    }
  ],
  "scene": 0,
  "scenes": [
    {
      "name": "Sketchfab_Scene",
      "nodes": [
        0
      ]
    }
  ],
  "textures": [
    {
      "sampler": 0,
      "source": 0
    },
    {
      "sampler": 0,
      "source": 1
    },
    {
      "sampler": 0,
      "source": 2
    }
  ]
}
